<svg xmlns="http://www.w3.org/2000/svg" width="478" height="605"><g fill="none" fill-rule="evenodd"><path stroke="#E3EBF1" stroke-linecap="round" stroke-width="6" d="M150.786 483.708c-7.54 1.544-14.203-4.752-15.176-11.982-1.565-11.697 2.013-23.061-5.784-33.456-2.33-3.11-8.464-8.478-12.828-8.478 4.364 0 10.496-5.365 12.828-8.474 7.797-10.395 4.219-21.756 5.784-33.455.973-7.232 7.636-13.528 15.176-11.983m-35.807 107.828c-7.54 1.544-14.204-4.752-15.176-11.982-1.566-11.697 2.013-23.061-5.785-33.456-2.33-3.11-8.464-8.478-12.827-8.478 4.363 0 10.496-5.365 12.827-8.474 7.798-10.395 4.219-21.756 5.785-33.455.972-7.232 7.635-13.528 15.176-11.983M79.17 483.708c-7.54 1.544-14.204-4.752-15.176-11.982-1.566-11.697 2.013-23.061-5.785-33.456-2.33-3.11-8.462-8.478-12.826-8.478 4.364 0 10.495-5.365 12.826-8.474 7.798-10.395 4.219-21.756 5.785-33.455.972-7.232 7.636-13.528 15.176-11.983"/><g fill="#69BED0" fill-rule="nonzero" stroke="#69BED0" transform="translate(354 235)"><ellipse cx="4.75" cy="4.706" rx="4.75" ry="4.706"/><ellipse cx="33.25" cy="4.706" rx="4.75" ry="4.706"/><ellipse cx="4.75" cy="18.824" rx="4.75" ry="4.706"/><ellipse cx="33.25" cy="18.824" rx="4.75" ry="4.706"/><ellipse cx="4.75" cy="32.941" rx="4.75" ry="4.706"/><ellipse cx="33.25" cy="32.941" rx="4.75" ry="4.706"/><ellipse cx="19" cy="47.059" rx="4.75" ry="4.706"/><ellipse cx="33.25" cy="47.059" rx="4.75" ry="4.706"/><ellipse cx="19" cy="61.176" rx="4.75" ry="4.706"/><ellipse cx="19" cy="4.706" rx="4.75" ry="4.706"/><ellipse cx="19" cy="18.824" rx="4.75" ry="4.706"/><ellipse cx="19" cy="32.941" rx="4.75" ry="4.706"/><ellipse cx="4.75" cy="47.059" rx="4.75" ry="4.706"/><ellipse cx="4.75" cy="61.176" rx="4.75" ry="4.706"/><ellipse cx="33.25" cy="61.176" rx="4.75" ry="4.706"/><ellipse cx="4.75" cy="75.294" rx="4.75" ry="4.706"/><ellipse cx="19" cy="75.294" rx="4.75" ry="4.706"/><ellipse cx="33.25" cy="75.294" rx="4.75" ry="4.706"/></g><path stroke="#F9C7C5" stroke-linecap="round" stroke-linejoin="round" stroke-width="6" d="M219 602l38-17.025L219.001 568M238 128h-21V3h21"/><g stroke="#F9C7C5" stroke-linecap="round" stroke-width="4"><path d="M309.081 424.062l16.614-16.971 16.616 16.972M342.311 424.062l16.615-16.971 16.615 16.972M375.541 424.062l16.615-16.971 16.615 16.972M408.771 424.062l16.615-16.971 16.616 16.972M442.002 424.062l16.614-16.971 16.616 16.972"/></g><g stroke="#E3EBF1" stroke-linecap="round" stroke-width="6"><path d="M3.528 220.007L62.482 80.025M37.176 220.007L96.13 80.025"/></g></g></svg>