<svg id="visual" viewBox="0 0 900 400" width="900" height="400" xmlns="http://www.w3.org/2000/svg" xmlns:xlink="http://www.w3.org/1999/xlink" version="1.1"><rect x="0" y="0" width="900" height="400" fill="#140021"></rect><path d="M0 216L129 216L129 200L257 200L257 175L386 175L386 173L514 173L514 238L643 238L643 224L771 224L771 198L900 198L900 239L900 401L900 401L771 401L771 401L643 401L643 401L514 401L514 401L386 401L386 401L257 401L257 401L129 401L129 401L0 401Z" fill="#9900ff"></path><path d="M0 272L129 272L129 268L257 268L257 307L386 307L386 232L514 232L514 263L643 263L643 287L771 287L771 273L900 273L900 255L900 401L900 401L771 401L771 401L643 401L643 401L514 401L514 401L386 401L386 401L257 401L257 401L129 401L129 401L0 401Z" fill="#7700c6"></path><path d="M0 301L129 301L129 333L257 333L257 324L386 324L386 359L514 359L514 359L643 359L643 303L771 303L771 360L900 360L900 315L900 401L900 401L771 401L771 401L643 401L643 401L514 401L514 401L386 401L386 401L257 401L257 401L129 401L129 401L0 401Z" fill="#560090"></path></svg>