<svg id="visual" viewBox="0 0 900 600" width="900" height="600" xmlns="http://www.w3.org/2000/svg" xmlns:xlink="http://www.w3.org/1999/xlink" version="1.1"><rect x="0" y="0" width="900" height="600" fill="#002233"></rect><path d="M0 437L21.5 435C43 433 86 429 128.8 438.3C171.7 447.7 214.3 470.3 257.2 480.2C300 490 343 487 385.8 479.8C428.7 472.7 471.3 461.3 514.2 459.7C557 458 600 466 642.8 458.5C685.7 451 728.3 428 771.2 436C814 444 857 483 878.5 502.5L900 522L900 601L878.5 601C857 601 814 601 771.2 601C728.3 601 685.7 601 642.8 601C600 601 557 601 514.2 601C471.3 601 428.7 601 385.8 601C343 601 300 601 257.2 601C214.3 601 171.7 601 128.8 601C86 601 43 601 21.5 601L0 601Z" fill="#0066FF" stroke-linecap="round" stroke-linejoin="miter"></path></svg>